<svg xmlns="http://www.w3.org/2000/svg" viewBox="0 0 120 120">
  <path d="M60 0c33.137 0 60 26.863 60 60s-26.863 60-60 60S0 93.137 0 60 26.863 0 60 0Zm0 59.375a46.494 46.494 0 0 0-10.967 1.307A50.174 50.174 0 0 0 38.4 64.608a9.833 9.833 0 0 0-3.923 3.666C33.49 69.878 33 71.638 33 73.55V83h54v-9.45a9.912 9.912 0 0 0-1.477-5.276 9.833 9.833 0 0 0-3.923-3.666c-3.488-1.745-7.03-3.054-10.63-3.926A46.428 46.428 0 0 0 60 59.375Zm-9.366 7.887a39.21 39.21 0 0 1 18.732 0 44.07 44.07 0 0 1 9.197 3.418 3.3 3.3 0 0 1 1.225 1.183c.308.504.462 1.066.462 1.687v2.7h-40.5v-2.7a3.272 3.272 0 0 1 1.688-2.867 44.072 44.072 0 0 1 9.196-3.421ZM60 29c-3.712 0-6.89 1.32-9.534 3.966C47.823 35.61 46.5 38.788 46.5 42.5c0 3.713 1.32 6.89 3.966 9.534C53.11 54.677 56.288 56 60 56c3.712 0 6.89-1.32 9.534-3.966C72.177 49.39 73.5 46.213 73.5 42.5c0-3.712-1.32-6.89-3.966-9.534C66.89 30.323 63.712 29 60 29Zm0 6.75a6.502 6.502 0 0 1 4.768 1.985c1.32 1.32 1.982 2.907 1.982 4.765 0 1.858-.659 3.443-1.982 4.766S61.858 49.25 60 49.25c-1.855 0-3.443-.661-4.766-1.984-1.323-1.32-1.984-2.908-1.984-4.766a6.49 6.49 0 0 1 1.984-4.765c1.32-1.323 2.908-1.985 4.766-1.985Z" fill="#6A7281" fill-rule="evenodd"/>
</svg>