<svg xmlns="http://www.w3.org/2000/svg" viewBox="0 0 196 59">
  <defs>
    <linearGradient x1="0%" y1="50%" x2="100%" y2="50%" id="a">
      <stop stop-color="#3B82F6" offset="0%"/>
      <stop stop-color="#2DD4BF" offset="100%"/>
    </linearGradient>
  </defs>
  <path d="M40.98 58.12c5.916 0 10.652-1.435 14.207-4.305 3.529-2.843 5.293-6.766 5.293-11.768 0-3.123-.774-5.732-2.323-7.827-1.549-2.095-3.821-3.929-6.817-5.503 2.437-1.371 4.31-3.066 5.618-5.085 1.307-2.018 1.96-4.487 1.96-7.407 0-5.13-1.954-9.116-5.864-11.96C49.194 1.423 43.748 0 36.714 0H0v58.12h40.98ZM26.47 23.003h-.724V11.692h1.676c2.133 0 3.777.445 4.932 1.333 1.155.89 1.733 2.324 1.733 4.304 0 1.016-.133 1.885-.4 2.609a3.815 3.815 0 0 1-1.314 1.771c-.61.457-1.396.787-2.361.99-.965.203-2.146.305-3.542.305Zm.343 22.318h-1.067V32.754h1.79c4.799 0 7.198 2.184 7.198 6.55 0 2.184-.622 3.733-1.866 4.647-1.244.914-3.263 1.371-6.056 1.371Zm89.806 12.797V43.532H94.072v-7.16h15.692V21.785H94.072v-7.198h22.547V0H68.364v58.12h48.255Zm33.402 0V29.021l9.75 11.236 9.75-11.236V58.12h25.746V0H170.32l-10.55 12.111L149.26 0h-24.985v58.12h25.747Z" fill="url(#a)" fill-rule="nonzero"/>
</svg>