<svg xmlns="http://www.w3.org/2000/svg" viewBox="0 0 290 90">
  <g fill="none" fill-rule="evenodd">
    <rect fill="#6A7281" width="290" height="90" rx="30"/>
    <path d="M65.292 43.612c3.293-3.344 5.105-5.08 5.434-5.206.33-.127 3.66-.418 9.994-.874 2.584 2.33 4.079 3.293 4.484 2.888 1.317-.963 1.85-1.723 1.596-2.28l-5.168-5.624c-7.55.304-11.755.836-12.616 1.596l-5.244 6.46v.76l1.52 2.28Zm5.32 0c0 2.027 3.395 2.179 10.184.456 1.672.253 1.773-1.09.304-4.028l-.684.228-9.044.304-.76 3.04Zm-4.56 4.56c2.533 5.573 5.067 7.853 7.6 6.84 9.12-1.013 13.933-4.307 14.44-9.88l-2.28-1.52-2.28 3.04-4.256 2.356-7.144 1.216-3.04-5.092h-2.28l-.76 3.04Zm28.424 7.182c1.875.076 5.003-.24 9.386-.95 4.383-.71 6.46-2.571 6.232-5.586-.228-3.015-.38-5.713-.456-8.094-.076-2.381-.24-4.357-.494-5.928-.253-1.57-3.775-1.495-10.564.228-1.773 6.181-2.305 9.272-1.596 9.272.71 0 1.343-.101 1.9-.304.557-.203.963-1.09 1.216-2.66s.532-2.407.836-2.508c.304-.101 1.33-.24 3.078-.418 1.748-.177 2.571 1.431 2.47 4.826-.101 3.395-.494 5.18-1.178 5.358-.684.177-2.812.583-6.384 1.216-3.572.633-5.383.557-5.434-.228-.031-.481-.048-1.61-.05-3.385v-1.208c.001-.862.005-1.84.012-2.931.025-4.23-.215-6.6-.722-7.106-.507-.507-1.14-.253-1.9.76s-1.14 2.28-1.14 3.8.127 4.18.38 7.98c.253 3.8.583 6.042.988 6.726.405.684 1.545 1.064 3.42 1.14Zm21.47-2.014c1.064 1.52 2.356 2.027 3.876 1.52 1.52-.507 2.71-.62 3.572-.342.861.279 2.04-.785 3.534-3.192 1.495-2.407 2.825-4.433 3.99-6.08 1.165-1.647 1.431-2.407.798-2.28-.633.127-1.507.24-2.622.342-1.115.101-2.381 1.457-3.8 4.066-1.419 2.61-2.179 3.496-2.28 2.66-.101-.836-.405-3.407-.912-7.714s-1.52-6.46-3.04-6.46c-1.013.507-1.09 3.534-.228 9.082.861 5.548.43 7.131-1.292 4.75-1.723-2.381-2.837-3.534-3.344-3.458-.507.076-1.153.203-1.938.38-.785.177-.633.963.456 2.356a102.9 102.9 0 0 1 3.23 4.37Zm21.774 0c1.064 1.52 2.356 2.027 3.876 1.52 1.52-.507 2.71-.62 3.572-.342.861.279 2.04-.785 3.534-3.192 1.495-2.407 2.825-4.433 3.99-6.08 1.165-1.647 1.431-2.407.798-2.28-.633.127-1.507.24-2.622.342-1.115.101-2.381 1.457-3.8 4.066-1.419 2.61-2.179 3.496-2.28 2.66-.101-.836-.405-3.407-.912-7.714s-1.52-6.46-3.04-6.46c-1.013.507-1.09 3.534-.228 9.082.861 5.548.43 7.131-1.292 4.75-1.723-2.381-2.837-3.534-3.344-3.458-.507.076-1.153.203-1.938.38-.785.177-.633.963.456 2.356a102.9 102.9 0 0 1 3.23 4.37Zm19.798 1.786c1.267.228 3.42.215 6.46-.038s6.181-.469 9.424-.646c3.243-.177 4.7-1.19 4.37-3.04-.33-1.85-1.28-5.611-2.85-11.286s-4.433-8.157-8.588-7.448c-3.04.152-4.7.57-4.978 1.254-.279.684-1.305 3.23-3.078 7.638-1.773 4.408-2.66 7.714-2.66 9.918 0 2.204.633 3.42 1.9 3.648Zm2.66-4.674c.507-3.243 1.14-6.004 1.9-8.284.76-2.28 1.28-3.648 1.558-4.104.279-.456 1.393-.747 3.344-.874 1.95-.127 3.547 1.76 4.788 5.662 1.241 3.901 1.76 6.017 1.558 6.346-.203.33-4.585.747-13.148 1.254Zm23.408 4.256c.76 0 2.445-2.09 5.054-6.27 2.61-4.18 4.117-6.333 4.522-6.46.405-.127 1.38 1.71 2.926 5.51 1.545 3.8 2.698 5.573 3.458 5.32a6.163 6.163 0 0 0 1.976-1.064c.557-.456-.583-3.623-3.42-9.5-2.837-5.877-4.636-8.563-5.396-8.056-.76.507-2.204 2.66-4.332 6.46-2.128 3.8-3.319 5.94-3.572 6.422-.253.481-.62.469-1.102-.038-.481-.507-.81-1.786-.988-3.838-.177-2.052.177-3.952 1.064-5.7.887-1.748 1.47-2.749 1.748-3.002.279-.253.355-.57.228-.95-.127-.38-.975-.925-2.546-1.634-1.875 1.064-3.053 3.509-3.534 7.334-.481 3.825-.14 7.36 1.026 10.602 1.165 3.243 2.128 4.864 2.888 4.864Zm38.646-.19c.38-.025.773-.114 1.178-.266.405-.152.405-3.496 0-10.032s-.671-9.88-.798-10.032c-.127-.152-.583-.19-1.368-.114-.785.076-1.203.177-1.254.304-.05.127.025 2.217.228 6.27.203 4.053.177 6.118-.076 6.194-.253.076-1.355-.937-3.306-3.04-1.95-2.103-3.914-4.23-5.89-6.384-1.976-2.153-3.521-3.18-4.636-3.078-.608.912-.963 1.621-1.064 2.128-.101.507 1.254 2.179 4.066 5.016a334.335 334.335 0 0 1 8.284 8.664c2.71 2.939 4.256 4.395 4.636 4.37Zm-12.958-1.9c2.685.887 4.155 1.254 4.408 1.102.253-.152.481-.583.684-1.292.203-.71-3.015-2.685-9.652-5.928-.963 2.027-1.115 3.331-.456 3.914.659.583 2.33 1.317 5.016 2.204Z" fill="#FFF" fill-rule="nonzero"/>
  </g>
</svg>