<?xml version="1.0" encoding="UTF-8"?>
<svg width="402px" height="246px" viewBox="0 0 402 246" version="1.1" xmlns="http://www.w3.org/2000/svg" xmlns:xlink="http://www.w3.org/1999/xlink">
    <title>Group 3</title>
    <g id="Page-1" stroke="none" stroke-width="1" fill="none" fill-rule="evenodd">
        <g id="Group-3">
            <rect id="Rectangle-Copy-13" fill="#FFFFFF" x="0" y="0" width="402" height="246" rx="10"></rect>
            <rect id="Rectangle-Copy" fill="#9DA3AE" x="80" y="84" width="230" height="14" rx="7"></rect>
            <rect id="Rectangle-Copy" fill="#9DA3AE" x="80" y="30" width="100" height="14" rx="7"></rect>
            <path d="M10,0 L60,0 L60,0 L60,246 L10,246 C4.4771525,246 -1.10000309e-15,241.522847 0,236 L0,10 C-6.76353751e-16,4.4771525 4.4771525,1.01453063e-15 10,0 Z" id="Rectangle-Copy" fill="#6A7281"></path>
            <rect id="Rectangle-Copy" fill="#9DA3AE" x="80" y="138" width="190" height="14" rx="7"></rect>
            <rect id="Rectangle-Copy" fill="#9DA3AE" x="80" y="192" width="292" height="14" rx="7"></rect>
            <path d="M26.624,39.584 C27.4346667,39.584 27.973,39.5396667 28.239,39.451 C28.505,39.3623333 28.733,39.2673333 28.923,39.166 C29.113,39.0646667 29.246,38.9063333 29.322,38.691 C29.398,38.4756667 29.474,38.2223333 29.55,37.931 C29.626,37.6396667 29.664,37.0443333 29.664,36.145 C29.664,35.2456667 29.626,34.6123333 29.55,34.245 C29.474,33.8776667 29.4106667,33.6053333 29.36,33.428 C29.3093333,33.2506667 29.189,33.1303333 28.999,33.067 C28.809,33.0036667 28.5683333,32.9403333 28.277,32.877 C27.9856667,32.8136667 27.4346667,32.782 26.624,32.782 C25.8133333,32.782 25.256,32.8136667 24.952,32.877 C24.648,32.9403333 24.401,33.01 24.211,33.086 C24.021,33.162 23.9006667,33.3076667 23.85,33.523 C23.7993333,33.7383333 23.755,34.0043333 23.717,34.321 C23.679,34.6376667 23.66,35.2456667 23.66,36.145 L23.6604711,36.3830496 C23.6636116,37.1524711 23.6824545,37.6811212 23.717,37.969 C23.755,38.2856667 23.8753333,38.672 24.078,39.128 C24.4326667,39.3053333 24.743,39.4256667 25.009,39.489 C25.275,39.5523333 25.8133333,39.584 26.624,39.584 Z M34.129,40.116 C34.927,40.116 35.459,40.0716667 35.725,39.983 C35.991,39.8943333 36.2253333,39.7993333 36.428,39.698 C36.6306667,39.5966667 36.77,39.4383333 36.846,39.223 C36.922,39.0076667 36.9853333,38.7543333 37.036,38.463 C37.0866667,38.1716667 37.112,37.5763333 37.112,36.677 C37.112,35.7776667 37.0866667,35.1443333 37.036,34.777 C36.9853333,34.4096667 36.9346667,34.1373333 36.884,33.96 C36.8333333,33.7826667 36.713,33.6623333 36.523,33.599 C36.333,33.5356667 36.086,33.4723333 35.782,33.409 C35.478,33.3456667 34.927,33.314 34.129,33.314 C33.331,33.314 32.78,33.3456667 32.476,33.409 C32.172,33.4723333 31.925,33.542 31.735,33.618 C31.545,33.694 31.4246667,33.8396667 31.374,34.055 C31.3233333,34.2703333 31.2663333,34.5363333 31.203,34.853 C31.1396667,35.1696667 31.108,35.7776667 31.108,36.677 L31.1087851,36.9150496 C31.1140193,37.6844711 31.1454242,38.2131212 31.203,38.501 C31.2663333,38.8176667 31.3993333,39.204 31.602,39.66 C31.9566667,39.8373333 32.267,39.9576667 32.533,40.021 C32.799,40.0843333 33.331,40.116 34.129,40.116 Z M34.205,92.812 C34.9776667,92.812 35.497,92.774 35.763,92.698 C36.029,92.622 36.257,92.5333333 36.447,92.432 C36.637,92.3306667 36.77,92.1723333 36.846,91.957 C36.922,91.7416667 36.9916667,91.4883333 37.055,91.197 C37.1183333,90.9056667 37.15,90.3166667 37.15,89.43 L37.14905,89.17198 C37.14335,88.42186 37.112,87.8872 37.055,87.568 C36.9916667,87.2133333 36.9346667,86.9473333 36.884,86.77 C36.8333333,86.5926667 36.713,86.466 36.523,86.39 C36.333,86.314 36.0923333,86.2506667 35.801,86.2 C35.5096667,86.1493333 34.9776667,86.124 34.205,86.124 C33.4323333,86.124 32.9003333,86.1493333 32.609,86.2 C32.3176667,86.2506667 32.077,86.3203333 31.887,86.409 C31.697,86.4976667 31.5766667,86.6433333 31.526,86.846 C31.4753333,87.0486667 31.4246667,87.3083333 31.374,87.625 C31.3233333,87.9416667 31.298,88.5433333 31.298,89.43 L31.29876,89.68745 C31.30332,90.43415 31.3284,90.95 31.374,91.235 C31.4246667,91.5516667 31.5513333,91.938 31.754,92.394 C32.0833333,92.5713333 32.381,92.6853333 32.647,92.736 C32.913,92.7866667 33.4323333,92.812 34.205,92.812 Z M26.89,93.268 C27.6753333,93.268 28.1946667,93.23 28.448,93.154 C28.7013333,93.078 28.923,92.9893333 29.113,92.888 C29.303,92.7866667 29.436,92.6283333 29.512,92.413 C29.588,92.1976667 29.6576667,91.9443333 29.721,91.653 C29.7843333,91.3616667 29.816,90.7726667 29.816,89.886 C29.816,88.9993333 29.7843333,88.3786667 29.721,88.024 C29.6576667,87.6693333 29.6006667,87.4033333 29.55,87.226 C29.4993333,87.0486667 29.3853333,86.922 29.208,86.846 C29.0306667,86.77 28.7963333,86.7066667 28.505,86.656 C28.2136667,86.6053333 27.6753333,86.58 26.89,86.58 C26.1046667,86.58 25.5663333,86.6053333 25.275,86.656 C24.9836667,86.7066667 24.7493333,86.7763333 24.572,86.865 C24.3946667,86.9536667 24.2806667,87.0993333 24.23,87.302 C24.1793333,87.5046667 24.1286667,87.7643333 24.078,88.081 C24.0273333,88.3976667 24.002,88.9993333 24.002,89.886 L24.00276,90.14345 C24.00732,90.89015 24.0324,91.406 24.078,91.691 C24.1286667,92.0076667 24.2426667,92.394 24.42,92.85 C24.7746667,93.0273333 25.0786667,93.1413333 25.332,93.192 C25.5853333,93.2426667 26.1046667,93.268 26.89,93.268 Z M33.73,101.818 C34.5153333,101.818 35.0346667,101.78 35.288,101.704 C35.5413333,101.628 35.7693333,101.533 35.972,101.419 C36.1746667,101.305 36.3076667,101.146667 36.371,100.944 C36.4343333,100.741333 36.4976667,100.494333 36.561,100.203 C36.6243333,99.9116667 36.656,99.3226667 36.656,98.436 L36.65505,98.17779 C36.64935,97.42653 36.618,96.8856 36.561,96.555 C36.4976667,96.1876667 36.4406667,95.9153333 36.39,95.738 C36.3393333,95.5606667 36.2253333,95.4403333 36.048,95.377 C35.8706667,95.3136667 35.6363333,95.2503333 35.345,95.187 C35.0536667,95.1236667 34.5153333,95.092 33.73,95.092 C32.9446667,95.092 32.4126667,95.1236667 32.134,95.187 C31.8553333,95.2503333 31.621,95.32 31.431,95.396 C31.241,95.472 31.1206667,95.6176667 31.07,95.833 C31.0193333,96.0483333 30.9686667,96.3143333 30.918,96.631 C30.8673333,96.9476667 30.842,97.5493333 30.842,98.436 C30.842,99.3226667 30.8673333,99.9243333 30.918,100.241 C30.9686667,100.557667 31.0953333,100.931333 31.298,101.362 C31.6273333,101.564667 31.9186667,101.691333 32.172,101.742 C32.4253333,101.792667 32.9446667,101.818 33.73,101.818 Z M33.559,146.04 C34.3316667,146.04 34.851,146.002 35.117,145.926 C35.383,145.85 35.611,145.761333 35.801,145.66 C35.991,145.558667 36.124,145.406667 36.2,145.204 C36.276,145.001333 36.3456667,144.754333 36.409,144.463 C36.4723333,144.171667 36.504,143.589 36.504,142.715 C36.504,141.841 36.4723333,141.220333 36.409,140.853 C36.3456667,140.485667 36.2886667,140.219667 36.238,140.055 C36.1873333,139.890333 36.067,139.77 35.877,139.694 C35.687,139.618 35.4463333,139.548333 35.155,139.485 C34.8636667,139.421667 34.3316667,139.39 33.559,139.39 C32.7863333,139.39 32.2543333,139.421667 31.963,139.485 C31.6716667,139.548333 31.431,139.624333 31.241,139.713 C31.051,139.801667 30.9306667,139.947333 30.88,140.15 C30.8293333,140.352667 30.7786667,140.612333 30.728,140.929 C30.6773333,141.245667 30.652,141.841 30.652,142.715 L30.65276,142.96865 C30.65732,143.70395 30.6824,144.2084 30.728,144.482 C30.7786667,144.786 30.9053333,145.166 31.108,145.622 C31.4373333,145.799333 31.735,145.913333 32.001,145.964 C32.267,146.014667 32.7863333,146.04 33.559,146.04 Z M26.168,146.876 C26.9533333,146.876 27.4726667,146.838 27.726,146.762 C27.9793333,146.686 28.201,146.597333 28.391,146.496 C28.581,146.394667 28.714,146.242667 28.79,146.04 C28.866,145.837333 28.9356667,145.590333 28.999,145.299 C29.0623333,145.007667 29.094,144.425 29.094,143.551 L29.09305,143.2964 C29.08735,142.5554 29.056,142.0196 28.999,141.689 C28.9356667,141.321667 28.8786667,141.055667 28.828,140.891 C28.7773333,140.726333 28.6633333,140.606 28.486,140.53 C28.3086667,140.454 28.0743333,140.384333 27.783,140.321 C27.4916667,140.257667 26.9533333,140.226 26.168,140.226 C25.3826667,140.226 24.8443333,140.257667 24.553,140.321 C24.2616667,140.384333 24.0273333,140.460333 23.85,140.549 C23.6726667,140.637667 23.5586667,140.783333 23.508,140.986 C23.4573333,141.188667 23.4066667,141.448333 23.356,141.765 C23.3053333,142.081667 23.28,142.677 23.28,143.551 C23.28,144.425 23.3053333,145.014 23.356,145.318 C23.4066667,145.622 23.5206667,146.002 23.698,146.458 C24.0526667,146.635333 24.3566667,146.749333 24.61,146.8 C24.8633333,146.850667 25.3826667,146.876 26.168,146.876 Z M32.704,154.4 C33.4893333,154.4 34.0086667,154.362 34.262,154.286 C34.5153333,154.21 34.7433333,154.115 34.946,154.001 C35.1486667,153.887 35.2816667,153.728667 35.345,153.526 C35.4083333,153.323333 35.4716667,153.076333 35.535,152.785 C35.5983333,152.493667 35.63,151.911 35.63,151.037 L35.62905,150.78259 C35.62335,150.04273 35.592,149.5132 35.535,149.194 C35.4716667,148.839333 35.4146667,148.579667 35.364,148.415 C35.3133333,148.250333 35.1993333,148.13 35.022,148.054 C34.8446667,147.978 34.6103333,147.908333 34.319,147.845 C34.0276667,147.781667 33.4893333,147.75 32.704,147.75 C31.9186667,147.75 31.3866667,147.781667 31.108,147.845 C30.8293333,147.908333 30.595,147.984333 30.405,148.073 C30.215,148.161667 30.0946667,148.307333 30.044,148.51 C29.9933333,148.712667 29.9426667,148.966 29.892,149.27 C29.8413333,149.574 29.816,150.163 29.816,151.037 L29.81676,151.29084 C29.82132,152.02728 29.8464,152.538 29.892,152.823 C29.9426667,153.139667 30.0693333,153.513333 30.272,153.944 C30.6013333,154.146667 30.8926667,154.273333 31.146,154.324 C31.3993333,154.374667 31.9186667,154.4 32.704,154.4 Z M33.635,162.19 C34.4076667,162.19 34.927,162.152 35.193,162.076 C35.459,162 35.687,161.905 35.877,161.791 C36.067,161.677 36.2,161.518667 36.276,161.316 C36.352,161.113333 36.4216667,160.866333 36.485,160.575 C36.5483333,160.283667 36.58,159.701 36.58,158.827 C36.58,157.953 36.5483333,157.338667 36.485,156.984 C36.4216667,156.629333 36.3646667,156.369667 36.314,156.205 C36.2633333,156.040333 36.143,155.92 35.953,155.844 C35.763,155.768 35.5223333,155.698333 35.231,155.635 C34.9396667,155.571667 34.4076667,155.54 33.635,155.54 C32.8623333,155.54 32.3303333,155.571667 32.039,155.635 C31.7476667,155.698333 31.507,155.768 31.317,155.844 C31.127,155.92 31.0066667,156.065667 30.956,156.281 C30.9053333,156.496333 30.8546667,156.756 30.804,157.06 C30.7533333,157.364 30.728,157.953 30.728,158.827 L30.72876,159.08084 C30.73332,159.81728 30.7584,160.328 30.804,160.613 C30.8546667,160.929667 30.9813333,161.303333 31.184,161.734 C31.5133333,161.936667 31.811,162.063333 32.077,162.114 C32.343,162.164667 32.8623333,162.19 33.635,162.19 Z M26.776,206.412 C27.3586667,206.412 27.802,206.336 28.106,206.184 C28.41,206.032 28.6633333,205.88 28.866,205.728 C29.0686667,205.576 29.1953333,204.942667 29.246,203.828 L29.246,203.828 L29.132,193.226 C29.0813333,192.314 28.9673333,191.782 28.79,191.63 C28.6126667,191.478 28.372,191.370333 28.068,191.307 C27.764,191.243667 27.2383333,191.212 26.491,191.212 C25.7436667,191.212 25.2053333,191.237333 24.876,191.288 C24.5466667,191.338667 24.2996667,191.465333 24.135,191.668 C23.9703333,191.870667 23.888,192.491333 23.888,193.53 L23.888,193.53 L23.926,203.904 L24.306,205.272 C24.5086667,205.778667 24.8253333,206.095333 25.256,206.222 C25.6866667,206.348667 26.1933333,206.412 26.776,206.412 Z M34.091,198.66 C34.889,198.66 35.4146667,198.622 35.668,198.546 C35.9213333,198.47 36.143,198.375 36.333,198.261 C36.523,198.147 36.656,197.982333 36.732,197.767 C36.808,197.551667 36.884,197.292 36.96,196.988 C37.036,196.684 37.074,196.069667 37.074,195.145 C37.074,194.220333 37.036,193.568 36.96,193.188 C36.884,192.808 36.8206667,192.529333 36.77,192.352 C36.7193333,192.174667 36.6053333,192.048 36.428,191.972 C36.2506667,191.896 36.0163333,191.826333 35.725,191.763 C35.4336667,191.699667 34.889,191.668 34.091,191.668 C33.293,191.668 32.7483333,191.699667 32.457,191.763 C32.1656667,191.826333 31.9313333,191.902333 31.754,191.991 C31.5766667,192.079667 31.4626667,192.231667 31.412,192.447 C31.3613333,192.662333 31.3043333,192.934667 31.241,193.264 C31.1776667,193.593333 31.146,194.220333 31.146,195.145 C31.146,196.069667 31.1776667,196.696667 31.241,197.026 C31.3043333,197.355333 31.4246667,197.748 31.602,198.204 C31.9566667,198.406667 32.2606667,198.533333 32.514,198.584 C32.7673333,198.634667 33.293,198.66 34.091,198.66 Z" id="1234" fill="#FFFFFF" fill-rule="nonzero"></path>
        </g>
    </g>
</svg>