<svg xmlns="http://www.w3.org/2000/svg" viewBox="0 0 140 140">
  <g fill="none" fill-rule="evenodd">
    <rect fill="#6A7281" width="140" height="140" rx="10"/>
    <path d="m70 106.163-4.027-3.635c-10.676-9.756-19.221-18.27-25.637-25.539-6.417-7.269-9.627-14.635-9.627-22.1 0-5.894 1.98-10.821 5.945-14.786 3.957-3.956 8.856-5.94 14.683-5.94 3.34 0 6.648.801 9.92 2.408 3.274 1.6 6.19 4.24 8.743 7.905 2.88-3.666 5.862-6.302 8.939-7.909a20.754 20.754 0 0 1 9.724-2.404c5.827 0 10.726 1.98 14.687 5.944 3.96 3.957 5.94 8.884 5.94 14.777 0 7.466-3.21 14.833-9.626 22.101-6.416 7.27-14.961 15.783-25.637 25.54L70 106.162Z" fill="#9DA3AE" fill-rule="nonzero"/>
  </g>
</svg>