<svg xmlns="http://www.w3.org/2000/svg" viewBox="0 0 240 189">
  <g fill="none" fill-rule="evenodd">
    <rect fill="#FFF" width="240" height="156" rx="10"/>
    <path fill="#0060F5" opacity=".5" d="M85 0h69.517v156H85z"/>
    <path d="m216.609 161.88.139.071 20 11.25c1.31.738 1.357 2.584.14 3.4l-.14.087-20 11.25a2 2 0 0 1-2.095-3.405l.134-.082 13.345-7.507H11.384l13.347 7.507a2 2 0 0 1 .834 2.585l-.072.139a2 2 0 0 1-2.584.834l-.14-.071-20-11.25c-1.31-.738-1.357-2.584-.14-3.4l.14-.087 20-11.25a2 2 0 0 1 2.095 3.405l-.133.082-13.347 7.506h216.748l-13.345-7.506a2 2 0 0 1-.834-2.585l.071-.14a2 2 0 0 1 2.585-.833ZM131.609 65.435l.139.072 20 11.25c1.31.737 1.357 2.583.14 3.4l-.14.086-20 11.25a2 2 0 0 1-2.095-3.404l.134-.082L143.13 80.5H96.386l13.345 7.507a2 2 0 0 1 .834 2.584l-.072.14a2 2 0 0 1-2.584.834l-.14-.072-20-11.25c-1.31-.737-1.357-2.583-.14-3.4l.14-.086 20-11.25a2 2 0 0 1 2.095 3.404l-.133.082L96.385 76.5h46.746l-13.344-7.507a2 2 0 0 1-.834-2.584l.071-.14a2 2 0 0 1 2.585-.834Z" fill="#6A7281" fill-rule="nonzero"/>
  </g>
</svg>