<svg xmlns="http://www.w3.org/2000/svg" viewBox="0 0 437 51">
  <path d="M8.62 45.54c2.184 3.12 4.836 4.16 7.956 3.12s5.564-1.274 7.332-.702c1.768.572 4.186-1.612 7.254-6.552 3.068-4.94 5.798-9.1 8.19-12.48 2.392-3.38 2.938-4.94 1.638-4.68-1.3.26-3.094.494-5.382.702-2.288.208-4.888 2.99-7.8 8.346s-4.472 7.176-4.68 5.46c-.208-1.716-.832-6.994-1.872-15.834s-3.12-13.26-6.24-13.26c-2.08 1.04-2.236 7.254-.468 18.642.57 3.67.864 6.494.883 8.474v.397c-.039 3.79-1.217 4.083-3.535.879-3.536-4.888-5.824-7.254-6.864-7.098-1.04.156-2.366.416-3.978.78-1.612.364-1.3 1.976.936 4.836 2.236 2.86 4.446 5.85 6.63 8.97Zm50.934.156c0 3.12 5.356 3.536 16.068 1.248l1.092-2.184 10.92-38.064c0-3.12-2.08-4.16-6.24-3.12L70.162 39.144c-1.768 0-3.172.026-4.212.078-1.04.052-4.576-8.086-10.608-24.414l2.652-.624 5.772 8.892 5.616-1.248c-2.08-7.28-3.458-11.856-4.134-13.728-.676-1.872-1.456-3.068-2.34-3.588-.884-.52-6.474.26-16.77 2.34-1.352.52-1.196 2.236.468 5.148 2.08 4.576 6.396 15.808 12.948 33.696Zm38.454 1.17c.78.572 4.29.364 10.53-.624 6.24-.988 9.88-2.002 10.92-3.042 1.04-1.04 2.08-7.8 3.12-20.28s1.3-19.24.78-20.28a5.102 5.102 0 0 0-2.34-2.34c-1.04-.52-2.08 0-3.12 1.56s-1.612 7.384-1.716 17.472c-.104 10.088-.52 15.314-1.248 15.678-.728.364-2.912.806-6.552 1.326-3.64.52-5.746.416-6.318-.312-.572-.728-1.04-3.25-1.404-7.566-.364-4.316.416-8.32 2.34-12.012s3.302-5.59 4.134-5.694c.832-.104 1.404.39 1.716 1.482.312 1.092 1.066 1.508 2.262 1.248s1.768-1.69 1.716-4.29a392.68 392.68 0 0 1-.077-4.822l-.001-.248c0-.78-1.17-1.118-3.51-1.014-2.34.104-4.134.468-5.382 1.092-6.448 4.68-10.088 10.296-10.92 16.848-.832 6.552-.39 12.35 1.326 17.394 1.716 5.044 2.964 7.852 3.744 8.424Zm33.93 2.34c2.6.468 7.02.442 13.26-.078s12.688-.962 19.344-1.326c6.656-.364 9.646-2.444 8.97-6.24-.676-3.796-2.626-11.518-5.85-23.166-3.224-11.648-9.1-16.744-17.628-15.288-6.24.312-9.646 1.17-10.218 2.574-.572 1.404-2.678 6.63-6.318 15.678-3.64 9.048-5.46 15.834-5.46 20.358 0 4.524 1.3 7.02 3.9 7.488Zm5.46-9.594c1.04-6.656 2.34-12.324 3.9-17.004 1.56-4.68 2.626-7.488 3.198-8.424.572-.936 2.86-1.534 6.864-1.794s7.28 3.614 9.828 11.622c2.548 8.008 3.614 12.35 3.198 13.026-.416.676-9.412 1.534-26.988 2.574Zm39.78 5.616c.52 3.64 3.12 4.94 7.8 3.9 4.68-1.04 9.1-2.08 13.26-3.12s8.32-7.02 12.48-17.94c4.16-10.92 5.668-20.228 4.524-27.924-5.824 2.08-11.934 2.444-18.33 1.092-6.396-1.352-9.334 1.352-8.814 8.112.52 6.76 1.3 10.4 2.34 10.92 1.04.52 2.34-.26 3.9-2.34s3.874-3.536 6.942-4.368c3.068-.832 4.628-.052 4.68 2.34.052 2.392-.962 6.188-3.042 11.388s-4.563 8.125-7.449 8.775c-2.886.65-5.85 1.3-8.892 1.95-3.042.65-4.459-4.095-4.251-14.235.208-10.14-.468-15.73-2.028-16.77-1.56-1.04-2.6 4.16-3.12 15.6-.25 5.508-.38 10.112-.39 13.812v.838c.01 3.56.14 6.217.39 7.97Zm54.132 1.794c1.716 1.82 2.834 2.47 3.354 1.95.52-.52 2.756-3.848 6.708-9.984 3.952-6.136 7.878-11.7 11.778-16.692 3.9-4.992 5.681-8.814 5.343-11.466-.338-2.652-1.651-4.602-3.939-5.85-2.288 0-8.099.416-17.433 1.248-9.334.832-14.417 1.378-15.249 1.638-.832.26-1.144 1.846-.936 4.758.208 2.912.468 4.706.78 5.382.312.676 5.148.026 14.508-1.95s13.702-2.106 13.026-.39c-.676 1.716-4.108 6.318-10.296 13.806-6.188 7.488-9.438 11.83-9.75 13.026-.312 1.196.39 2.704 2.106 4.524Zm31.278-19.5c.52.988 4.498.754 11.934-.702 7.436-1.456 11.492-2.288 12.168-2.496.676-.208 2.366-1.534 5.07-3.978s4.94-4.888 6.708-7.332c1.768-2.444 2.288-4.03 1.56-4.758a38.853 38.853 0 0 0-2.184-2.028c-.728-.624-1.456-.754-2.184-.39-.728.364-2.444 2.106-5.148 5.226-2.704 3.12-4.368 4.888-4.992 5.304-.624.416-3.432 1.144-8.424 2.184-1.941.404-3.564.726-4.868.966l-.54.097c-1.733.308-2.817.448-3.25.419-.78-.052-1.248-1.768-1.404-5.148-.156-3.38-.312-5.33-.468-5.85-.156-.52-1.898-.364-5.226.468.312 11.024.728 17.03 1.248 18.018Zm3.008 21.849.112-.009c1.248-.156 2.34-.286 3.276-.39.936-.104 1.352-1.56 1.248-4.368-.104-2.808.234-4.368 1.014-4.68.78-.312 3.38-.884 7.8-1.716s6.968-1.118 7.644-.858c.676.26 3.588 1.716 8.736 4.368 5.148 2.652 7.8 3.614 7.956 2.886.156-.728.364-1.95.624-3.666s-.884-3.38-3.432-4.992a280.929 280.929 0 0 0-7.254-4.446c-2.288-1.352-3.796-2.106-4.524-2.262-.728-.156-9.308 1.326-25.74 4.446a65.155 65.155 0 0 0 .234 10.53c.364 3.588 1.17 5.304 2.418 5.148l-.112.009Zm47.614-2.505c.78.572 4.29.364 10.53-.624 6.24-.988 9.88-2.002 10.92-3.042 1.04-1.04 2.08-7.8 3.12-20.28.678-8.13 1.024-13.834 1.04-17.109V5.37c-.008-1.49-.095-2.4-.26-2.73A5.102 5.102 0 0 0 336.22.3c-1.04-.52-2.08 0-3.12 1.56s-1.612 7.384-1.716 17.472c-.104 10.088-.52 15.314-1.248 15.678-.728.364-2.912.806-6.552 1.326-3.64.52-5.746.416-6.318-.312-.572-.728-1.04-3.25-1.404-7.566-.364-4.316.416-8.32 2.34-12.012s3.302-5.59 4.134-5.694c.832-.104 1.404.39 1.716 1.482.312 1.092 1.066 1.508 2.262 1.248s1.768-1.69 1.716-4.29a392.68 392.68 0 0 1-.077-4.822l-.001-.248c0-.78-1.17-1.118-3.51-1.014-2.34.104-4.134.468-5.382 1.092-6.448 4.68-10.088 10.296-10.92 16.848-.832 6.552-.39 12.35 1.326 17.394 1.716 5.044 2.964 7.852 3.744 8.424Zm31.434-28.821c.416 2.21 2.704 2.743 6.864 1.599s10.842-1.755 20.046-1.833c9.204-.078 14.326-1.339 15.366-3.783 1.04-2.444 1.3-4.147.78-5.109-.52-.962-5.46-1.443-14.82-1.443-16.64.936-25.74 1.651-27.3 2.145-1.56.494-2.21 1.469-1.95 2.925.26 1.456.598 3.289 1.014 5.499Zm7.878 15.21c.052.806 4.628.689 13.728-.351s14.43-1.404 15.99-1.092c1.56.312 2.132-.702 1.716-3.042-.416-2.34-.624-4.225-.624-5.655 0-1.43-4.16-1.651-12.48-.663-11.44.936-17.394 1.989-17.862 3.159-.468 1.17-.676 2.535-.624 4.095.052 1.56.104 2.743.156 3.549Zm-4.602 14.04c0 2.678 2.08 3.562 6.24 2.652 4.16-.91 10.14-1.807 17.94-2.691 7.8-.884 13.052-1.547 15.756-1.989 2.704-.442 3.926-1.56 3.666-3.354-.26-1.794-.52-3.523-.78-5.187-.26-1.664-3.094-2.158-8.502-1.482-17.237 2.087-27.55 3.144-30.938 3.173h-.235c-.372-.002-.641-.02-.807-.053-1.56-.312-2.34.429-2.34 2.223v6.708Zm60.84-1.599c0 3.12 5.356 3.536 16.068 1.248l1.092-2.184 10.92-38.064c0-3.12-2.08-4.16-6.24-3.12l-11.232 35.568c-1.768 0-3.172.026-4.212.078-1.04.052-4.576-8.086-10.608-24.414l2.652-.624 5.772 8.892 5.616-1.248c-2.08-7.28-3.458-11.856-4.134-13.728-.676-1.872-1.456-3.068-2.34-3.588-.884-.52-6.474.26-16.77 2.34-1.352.52-1.196 2.236.468 5.148 2.08 4.576 6.396 15.808 12.948 33.696Z" fill="#6A7281" fill-rule="nonzero"/>
</svg>